<mxfile host="app.diagrams.net" agent="Mozilla/5.0 (Windows NT 10.0; Win64; x64) AppleWebKit/537.36 (KHTML, like Gecko) Chrome/131.0.0.0 Safari/537.36 Edg/131.0.0.0" version="25.0.1">
  <diagram name="หน้า-1" id="HHOppRkcBn9RsN4fxckB">
    <mxGraphModel dx="4165" dy="1868" grid="1" gridSize="10" guides="1" tooltips="1" connect="1" arrows="1" fold="1" page="1" pageScale="1" pageWidth="827" pageHeight="1169" math="0" shadow="0">
      <root>
        <mxCell id="0" />
        <mxCell id="1" parent="0" />
        <mxCell id="BFjaM8TPuEpePUiSNkcH-1" value="" style="edgeStyle=orthogonalEdgeStyle;rounded=0;orthogonalLoop=1;jettySize=auto;html=1;" edge="1" parent="1" source="BFjaM8TPuEpePUiSNkcH-2" target="BFjaM8TPuEpePUiSNkcH-4">
          <mxGeometry relative="1" as="geometry" />
        </mxCell>
        <mxCell id="BFjaM8TPuEpePUiSNkcH-2" value="Start" style="ellipse;whiteSpace=wrap;html=1;" vertex="1" parent="1">
          <mxGeometry x="155" y="90" width="120" height="80" as="geometry" />
        </mxCell>
        <mxCell id="BFjaM8TPuEpePUiSNkcH-3" value="" style="edgeStyle=orthogonalEdgeStyle;rounded=0;orthogonalLoop=1;jettySize=auto;html=1;" edge="1" parent="1" source="BFjaM8TPuEpePUiSNkcH-11" target="BFjaM8TPuEpePUiSNkcH-7">
          <mxGeometry relative="1" as="geometry" />
        </mxCell>
        <mxCell id="BFjaM8TPuEpePUiSNkcH-4" value="รับข้อมูลเลขUser&amp;nbsp;" style="shape=parallelogram;perimeter=parallelogramPerimeter;whiteSpace=wrap;html=1;fixedSize=1;" vertex="1" parent="1">
          <mxGeometry x="120" y="230" width="190" height="60" as="geometry" />
        </mxCell>
        <mxCell id="BFjaM8TPuEpePUiSNkcH-5" value="" style="edgeStyle=orthogonalEdgeStyle;rounded=0;orthogonalLoop=1;jettySize=auto;html=1;" edge="1" parent="1" source="BFjaM8TPuEpePUiSNkcH-7" target="BFjaM8TPuEpePUiSNkcH-13">
          <mxGeometry relative="1" as="geometry" />
        </mxCell>
        <mxCell id="BFjaM8TPuEpePUiSNkcH-6" value="" style="edgeStyle=orthogonalEdgeStyle;rounded=0;orthogonalLoop=1;jettySize=auto;html=1;" edge="1" parent="1" source="BFjaM8TPuEpePUiSNkcH-7" target="BFjaM8TPuEpePUiSNkcH-24">
          <mxGeometry relative="1" as="geometry" />
        </mxCell>
        <mxCell id="BFjaM8TPuEpePUiSNkcH-7" value="Loop ค่าที่ผู้ใช้กรอกมา&amp;nbsp;&lt;div&gt;ลดทีละ 1 ถึง&amp;nbsp;&lt;span style=&quot;background-color: initial;&quot;&gt;2&lt;/span&gt;&lt;/div&gt;" style="rhombus;whiteSpace=wrap;html=1;" vertex="1" parent="1">
          <mxGeometry x="133.75" y="400" width="162.5" height="100" as="geometry" />
        </mxCell>
        <mxCell id="BFjaM8TPuEpePUiSNkcH-8" value="Y" style="text;html=1;align=center;verticalAlign=middle;whiteSpace=wrap;rounded=0;" vertex="1" parent="1">
          <mxGeometry x="143.5" y="490" width="60" height="30" as="geometry" />
        </mxCell>
        <mxCell id="BFjaM8TPuEpePUiSNkcH-9" value="N" style="text;html=1;align=center;verticalAlign=middle;whiteSpace=wrap;rounded=0;" vertex="1" parent="1">
          <mxGeometry x="260" y="410" width="60" height="30" as="geometry" />
        </mxCell>
        <mxCell id="BFjaM8TPuEpePUiSNkcH-10" value="" style="edgeStyle=orthogonalEdgeStyle;rounded=0;orthogonalLoop=1;jettySize=auto;html=1;" edge="1" parent="1" source="BFjaM8TPuEpePUiSNkcH-4" target="BFjaM8TPuEpePUiSNkcH-11">
          <mxGeometry relative="1" as="geometry">
            <mxPoint x="215" y="290" as="sourcePoint" />
            <mxPoint x="215" y="400" as="targetPoint" />
          </mxGeometry>
        </mxCell>
        <mxCell id="BFjaM8TPuEpePUiSNkcH-11" value="" style="ellipse;whiteSpace=wrap;html=1;aspect=fixed;" vertex="1" parent="1">
          <mxGeometry x="202.5" y="330" width="25" height="25" as="geometry" />
        </mxCell>
        <mxCell id="BFjaM8TPuEpePUiSNkcH-12" value="" style="edgeStyle=orthogonalEdgeStyle;rounded=0;orthogonalLoop=1;jettySize=auto;html=1;" edge="1" parent="1" source="BFjaM8TPuEpePUiSNkcH-13" target="BFjaM8TPuEpePUiSNkcH-16">
          <mxGeometry relative="1" as="geometry" />
        </mxCell>
        <mxCell id="BFjaM8TPuEpePUiSNkcH-13" value="ค่า isPrime = 1&amp;nbsp;" style="rounded=0;whiteSpace=wrap;html=1;" vertex="1" parent="1">
          <mxGeometry x="336" y="420" width="143" height="60" as="geometry" />
        </mxCell>
        <mxCell id="BFjaM8TPuEpePUiSNkcH-14" value="" style="edgeStyle=orthogonalEdgeStyle;rounded=0;orthogonalLoop=1;jettySize=auto;html=1;" edge="1" parent="1" source="BFjaM8TPuEpePUiSNkcH-16" target="BFjaM8TPuEpePUiSNkcH-20">
          <mxGeometry relative="1" as="geometry" />
        </mxCell>
        <mxCell id="BFjaM8TPuEpePUiSNkcH-15" value="" style="edgeStyle=orthogonalEdgeStyle;rounded=0;orthogonalLoop=1;jettySize=auto;html=1;" edge="1" parent="1" source="BFjaM8TPuEpePUiSNkcH-16" target="BFjaM8TPuEpePUiSNkcH-22">
          <mxGeometry relative="1" as="geometry" />
        </mxCell>
        <mxCell id="BFjaM8TPuEpePUiSNkcH-16" value="J = 2&lt;div&gt;J * j &amp;lt;= i ; J++&lt;/div&gt;" style="rhombus;whiteSpace=wrap;html=1;" vertex="1" parent="1">
          <mxGeometry x="326" y="525" width="162.5" height="100" as="geometry" />
        </mxCell>
        <mxCell id="BFjaM8TPuEpePUiSNkcH-17" value="Y" style="text;html=1;align=center;verticalAlign=middle;whiteSpace=wrap;rounded=0;" vertex="1" parent="1">
          <mxGeometry x="335.75" y="615" width="60" height="30" as="geometry" />
        </mxCell>
        <mxCell id="BFjaM8TPuEpePUiSNkcH-18" value="N" style="text;html=1;align=center;verticalAlign=middle;whiteSpace=wrap;rounded=0;" vertex="1" parent="1">
          <mxGeometry x="646.25" y="535" width="60" height="30" as="geometry" />
        </mxCell>
        <mxCell id="BFjaM8TPuEpePUiSNkcH-19" value="" style="edgeStyle=orthogonalEdgeStyle;rounded=0;orthogonalLoop=1;jettySize=auto;html=1;" edge="1" parent="1" source="BFjaM8TPuEpePUiSNkcH-20" target="BFjaM8TPuEpePUiSNkcH-23">
          <mxGeometry relative="1" as="geometry" />
        </mxCell>
        <mxCell id="BFjaM8TPuEpePUiSNkcH-20" value="ค่าที่ผู้ใช้กรอกมา หาร&lt;div&gt;J = 0 ?&lt;/div&gt;" style="rounded=0;whiteSpace=wrap;html=1;" vertex="1" parent="1">
          <mxGeometry x="556" y="545" width="120" height="60" as="geometry" />
        </mxCell>
        <mxCell id="BFjaM8TPuEpePUiSNkcH-21" style="edgeStyle=orthogonalEdgeStyle;rounded=0;orthogonalLoop=1;jettySize=auto;html=1;entryX=1;entryY=0.5;entryDx=0;entryDy=0;" edge="1" parent="1" source="BFjaM8TPuEpePUiSNkcH-22" target="BFjaM8TPuEpePUiSNkcH-11">
          <mxGeometry relative="1" as="geometry">
            <Array as="points">
              <mxPoint x="408" y="780" />
              <mxPoint x="756" y="780" />
              <mxPoint x="756" y="343" />
            </Array>
          </mxGeometry>
        </mxCell>
        <mxCell id="BFjaM8TPuEpePUiSNkcH-22" value="แสดงค่า" style="shape=parallelogram;perimeter=parallelogramPerimeter;whiteSpace=wrap;html=1;fixedSize=1;" vertex="1" parent="1">
          <mxGeometry x="312.5" y="660" width="190" height="60" as="geometry" />
        </mxCell>
        <mxCell id="BFjaM8TPuEpePUiSNkcH-23" value="break" style="rounded=0;whiteSpace=wrap;html=1;" vertex="1" parent="1">
          <mxGeometry x="556" y="660" width="120" height="60" as="geometry" />
        </mxCell>
        <mxCell id="BFjaM8TPuEpePUiSNkcH-24" value="END" style="ellipse;whiteSpace=wrap;html=1;" vertex="1" parent="1">
          <mxGeometry x="155" y="605" width="120" height="80" as="geometry" />
        </mxCell>
      </root>
    </mxGraphModel>
  </diagram>
</mxfile>
